<?xml version="1.0" encoding="utf-8"?>
<!-- Generator: Adobe Illustrator 15.0.0, SVG Export Plug-In . SVG Version: 6.00 Build 0)  -->
<!DOCTYPE svg PUBLIC "-//W3C//DTD SVG 1.1//EN" "http://www.w3.org/Graphics/SVG/1.1/DTD/svg11.dtd">
<svg version="1.1" id="Layer_1" xmlns="http://www.w3.org/2000/svg" xmlns:xlink="http://www.w3.org/1999/xlink" x="0px" y="0px"
	 width="595.279px" height="841.89px" viewBox="0 0 595.279 841.89" enable-background="new 0 0 595.279 841.89"
	 xml:space="preserve">
<g id="Robot_1_" xmlns:svg="http://www.w3.org/2000/svg">
	<path id="p3881-6-0-0" fill="none" stroke="#00003C" stroke-width="3" stroke-miterlimit="10" d="M219.435,487.591
		c-0.188,0.068-0.378,0-0.565,0c-5.274,1.15-10.927,1.824-15.886,3.178c-14.254,3.783-25.432,17.096-29.075,32.094
		c-1.193,4.932-1.256,10.676,0.377,15.607"/>
	<path id="p3111-6" fill="none" stroke="#00003C" stroke-width="3" stroke-miterlimit="10" d="M289.011,554.212v60.408"/>
	<path id="p2993-7-9-4-0" fill="none" stroke="#00003C" stroke-width="3" stroke-miterlimit="10" d="M197.521,504.214l91.051,48.986
		l91.052-48.986"/>
	<path id="p4109-4" fill="none" stroke="#00003C" stroke-width="3" stroke-miterlimit="10" d="M237.08,495.429
		c-0.439,5.879-0.188,11.756,5.337,18.783c8.101,10.271,23.988,16.219,35.479,13.516c10.735-2.498,12.997-10.68,11.429-20.879"/>
	<path id="p2993-7-9-8-8-5-59" fill="none" stroke="#00003C" stroke-width="3" stroke-miterlimit="10" d="M188.477,431.781
		l78.493,42.229v29.326l-78.493-42.23V431.781L188.477,431.781z"/>
	<path id="p5148-2" fill="none" stroke="#00003C" stroke-width="3" stroke-miterlimit="10" d="M272.748,471.375v42.162"/>
	<path id="p2993-7-9-8-8-57-9" fill="none" stroke="#00003C" stroke-width="3" stroke-miterlimit="10" d="M320.409,445.498
		l-47.914,25.742l-91.05-48.986"/>
	<path id="p2993-7-9-8-2-6" fill="none" stroke="#00003C" stroke-width="3" stroke-miterlimit="10" d="M229.295,396.51
		l91.053,48.988c0,18.107,0,35.605,0,44.729l-47.851,25.813l-91.051-48.986c0-15.203,0-33.514,0-44.799L229.295,396.51z"/>
	<path id="p3881-5-4" fill="none" stroke="#00003C" stroke-width="3" stroke-miterlimit="10" d="M408.385,558.808
		c2.009,0,3.893,0.609,5.523,1.688c6.532,4.326,6.343,15.949-0.188,25.949c-3.518,5.404-7.223,9.596-11.429,12.094l-39.813,21.893
		c-1.696,1.354-3.518,2.299-5.273,3.176c-7.223,3.783-14.508,4.527-20.032,0.879c-9.857-6.621-9.732-24.189,0.189-39.322
		c6.341-9.596,15.132-15.678,23.171-17.301v-0.203c1.632-0.133,45.463-8.715,47.098-8.852c0.125,0,0.248,0,0.375,0
		S408.259,558.808,408.385,558.808L408.385,558.808z"/>
	<path id="p3881-6-4" fill="none" stroke="#00003C" stroke-width="3" stroke-miterlimit="10" d="M373.532,541.376
		c4.271,0.27,7.85,3.242,11.743,4.865c6.53,3.039,12.056,6.281,18.272,9.322c3.517,1.826,7.283,3.381,10.802,5.271
		c5.839,4.594,5.021,13.717,2.322,20.068c-3.139,8.377-9.355,15.066-16.641,18.986c-12.811,6.484-25.934,13.578-38.304,21.146
		c-6.971,4.596-16.264,8.381-24.112,3.783c-11.994-6.352-24.302-11.959-35.729-17.971c-7.034-5.139-8.104-15.678-6.094-23.854
		c3.705-15.068,14.76-28.582,29.075-32.299c4.898-1.35,10.612-2.025,15.889-3.176C351.617,545.568,362.604,542.998,373.532,541.376
		L373.532,541.376z"/>
	<path id="p3881-7-3-7-9-7" fill="none" stroke="#00003C" stroke-width="3" stroke-miterlimit="10" d="M391.616,568.404
		c1.444,0.678,3.268,1.688,4.899,2.367c3.642,2.432,3.704,8.918,0,14.525c-3.706,5.674-9.671,8.176-13.375,5.74
		c-1.821-0.879-3.268-1.688-4.898-2.363c-3.643-2.432-3.643-8.92,0-14.525c0.878-1.285,1.946-2.232,2.951-3.18"/>
	<path id="p3881-7-3-7-7-7-5" fill="none" stroke="#00003C" stroke-width="3" stroke-miterlimit="10" d="M356.704,577.525
		c0.564,0.137,1.256,0.271,1.758,0.607c1.945,0.811,4.27,2.299,6.468,3.176c4.959,3.314,4.959,12.027,0,19.662
		c-5.024,7.568-13.125,11.082-18.084,7.771c-2.513-1.148-4.271-2.229-6.468-3.176c-0.881-0.607-1.759-1.352-2.323-2.299"/>
	<path id="p3881-5-7-8-6" fill="none" stroke="#00003C" stroke-width="3" stroke-miterlimit="10" d="M402.857,565.767
		c1.694-0.064,3.327,0.203,4.773,0.881c5.839,2.77,6.339,11.215,1.19,18.852c-2.699,4.117-5.65,7.43-9.169,9.527l-33.029,18.443
		c-1.382,1.014-2.89,1.824-4.333,2.635c-6.026,3.178-12.243,4.191-17.142,1.893c-8.854-4.117-9.67-16.891-1.885-28.445
		c4.897-7.363,12.118-12.363,18.963-14.053c13-3.244,26.688-6.621,39.938-9.664c0.128,0,0.251,0,0.378,0
		C402.606,565.835,402.732,565.767,402.857,565.767L402.857,565.767z"/>
	<path id="p4502-0-7" fill="none" stroke="#00003C" stroke-width="3" stroke-miterlimit="10" d="M276.579,557.39v47.299
		l-38.619,20.879v-47.301L276.579,557.39z"/>
	<path id="p5229-81" fill="none" stroke="#00003C" stroke-width="3" stroke-miterlimit="10" d="M266.217,554.011l-53.501-28.65"/>
	<path id="p4502-0-2-0-6" fill="none" stroke="#00003C" stroke-width="3" stroke-miterlimit="10" d="M273.94,606.31l-35.981,19.258
		c-0.503-0.271-7.284-4.596-7.661-4.863v-47.299l38.619-20.879"/>
	<path id="p4502-0-1-2" fill="none" stroke="#00003C" stroke-width="3" stroke-miterlimit="10" d="M216.296,525.093v47.299
		l-38.681,20.875V545.97L216.296,525.093L216.296,525.093z"/>
	<path id="p4502-0-2-0-9-1" fill="none" stroke="#00003C" stroke-width="3" stroke-miterlimit="10" d="M213.659,574.009
		l-36.044,19.258c-0.439-0.27-7.221-4.592-7.598-4.861v-47.299l38.617-20.879"/>
	<path id="p5093-4" fill="none" stroke="#00003C" stroke-width="3" stroke-miterlimit="10" d="M216.987,460.226l-17.897-9.932"/>
	<path id="p5093-1-8" fill="none" stroke="#00003C" stroke-width="3" stroke-miterlimit="10" d="M255.605,481.242l-17.959-10"/>
	<path id="p3294" fill="none" stroke="#00003C" stroke-width="3" stroke-miterlimit="10" d="M320.409,472.322l59.467,31.961v38.311"
		/>
	<path id="p3296" fill="none" stroke="#00003C" stroke-width="3" stroke-miterlimit="10" d="M272.308,607.189l16.074,8.311
		l14.817-7.703"/>
	<path id="p3298" fill="none" stroke="#00003C" stroke-width="3" stroke-miterlimit="10" d="M212.339,574.55l17.206,8.99"/>
	<path id="p3300" fill="none" stroke="#00003C" stroke-width="3" stroke-miterlimit="10" d="M198.085,525.972v-22.365l26.123-13.381
		"/>
	<path id="p3305" fill="none" stroke="#00003C" stroke-width="3" stroke-miterlimit="10" d="M295.479,502.324l21.413,11.553
		l40.376-21.756"/>
</g>
<g id="Emblem" display="none">
	<g id="layer3" display="inline">
		<g id="g2458">
			<path id="p3881-2-7" fill="#FFC453" d="M260.83,458.445c4.239,0.219,7.855,3.432,11.72,5.256
				c6.484,3.287,11.908,6.719,18.145,9.932c3.491,1.975,7.23,3.727,10.66,5.695c5.861,4.967,5.05,14.896,2.37,21.688
				c-3.18,9.131-9.289,16.283-16.584,20.521c-12.656,7.01-25.688,14.678-37.97,22.854c-6.98,4.969-16.209,9.059-23.938,4.092
				c-11.721-6.791-24.003-12.777-35.476-19.426c-7.045-5.477-8.043-16.938-6.048-25.773c3.616-16.211,14.651-30.742,28.805-34.832
				c4.925-1.461,10.599-2.191,15.836-3.436C239.134,462.898,249.983,460.197,260.83,458.445L260.83,458.445z"/>
			<path id="p4082-6-4" fill="none" stroke="#975E29" stroke-width="0.5" stroke-linecap="round" d="M255.842,486.847
				l-34.102-18.838"/>
			<path id="p4122-0-1" fill="#DF9E1F" d="M190.755,486.193l38.219,21.248c0,0,16.583,15.771,31.357,29.865
				c-3.741,2.336-7.543,4.676-11.098,7.084c-6.981,4.967-16.209,9.055-24.002,4.09c-5.051-2.775-10.163-5.549-15.212-8.471
				c-0.188-0.072-0.374-0.146-0.563-0.221c-0.499-0.291-1.061-0.584-1.559-0.875c-0.249-0.146-0.563-0.072-0.748-0.219
				c-5.798-3.145-11.659-6.355-17.396-9.643c-6.981-5.477-7.979-16.938-5.983-25.773
				C185.081,497.218,187.513,491.376,190.755,486.193L190.755,486.193z"/>
			<path id="p4239-2-9" fill="#B77711" d="M183.523,504.009l71.508,36.73c-1.932,1.24-3.927,2.408-5.798,3.646
				c-6.981,4.969-16.209,9.059-24.002,4.092c-5.051-2.773-10.163-5.551-15.212-8.473c-0.188-0.072-0.374-0.145-0.563-0.219
				c-0.499-0.293-1.061-0.584-1.559-0.877c-0.249-0.145-0.563-0.072-0.748-0.219c-5.798-3.141-11.659-6.354-17.396-9.641
				C182.962,523.724,181.777,512.699,183.523,504.009L183.523,504.009z"/>
			<path id="p4080-7-3" fill="none" stroke="#975E29" stroke-width="0.6" stroke-linecap="round" d="M236.328,494.882
				l-36.097-18.986"/>
			<path id="p4078-2-1-7" fill="none" stroke="#F1C057" stroke-width="0.69" d="M221.054,516.789l-34.664-19.205"/>
			<path id="p4078-5-9" fill="none" stroke="#975E29" stroke-width="0.69" d="M222.488,514.013l-34.663-19.131"/>
			<path id="p4076-6-9-2" fill="none" stroke="#D6BB68" stroke-width="0.6" stroke-linecap="round" d="M220.057,537.306
				l-35.726-19.35"/>
			<path id="p4076-7-4" fill="none" stroke="#975E29" stroke-width="0.6" stroke-linecap="round" d="M220.181,534.021
				l-35.661-19.424"/>
			<path id="p3881-6-0-0_1_" fill="none" stroke="#2C1B06" stroke-width="0.69" d="M260.83,458.445
				c4.239,0.219,7.855,3.432,11.72,5.256c6.484,3.287,11.908,6.719,18.145,9.932c3.491,1.975,7.23,3.727,10.66,5.695
				c5.861,4.967,5.05,14.896,2.37,21.688c-3.18,9.131-9.289,16.283-16.584,20.521c-12.656,7.01-25.688,14.678-37.97,22.854
				c-6.98,4.969-16.209,9.059-23.938,4.092c-11.97-6.791-24.128-12.928-35.476-19.426c-7.045-5.477-8.043-16.938-6.048-25.773
				c3.616-16.211,14.651-30.742,28.805-34.832c4.925-1.461,10.599-2.191,15.836-3.436
				C239.134,462.898,249.983,460.197,260.83,458.445L260.83,458.445z"/>
		</g>
		<path id="p2993-7-32" fill="#0000FF" d="M297.489,430.039l90.398,52.941c0,23.879,0,45.783,0,67.545l-90.398,52.939
			l-90.399-52.939c0-22.125,0-49.363,0-67.545L297.489,430.039z"/>
		<path id="p4502-8" fill="#000094" d="M357.091,465.015l30.798,17.965v67.545l-90.025,52.721v-81.199L357.091,465.015
			L357.091,465.015z"/>
		<path id="p2993-7-9-49" fill="#5363FF" d="M297.489,535.919l90.398-52.939l-90.398-52.941L207.09,482.98L297.489,535.919z"/>
		<path id="p3111-6_1_" fill="none" stroke="#2559B9" stroke-width="1.5" d="M297.925,537.015v65.281"/>
		<path id="p2993-7-9-7-0" fill="none" stroke="#21365D" stroke-width="0.4" d="M312.513,438.875l53.367,31.033l-40.337,23.732
			l-53.369-31.254L312.513,438.875z"/>
		<path id="p2993-7-9-4-0_1_" fill="none" stroke="#859EEF" stroke-linejoin="bevel" d="M207.089,482.98l90.399,52.939
			l90.398-52.939"/>
		<path id="p4705-4" fill="none" stroke="#2F46AB" stroke-width="0.3" stroke-linejoin="bevel" d="M372.489,528.326v-21.541
			l-31.422,18.4v17.746"/>
		<path id="p2993-7-3-6" fill="none" stroke="#00003C" d="M297.489,430.039l90.398,52.941c0,23.879,0,45.783,0,67.545
			l-90.398,52.939l-90.399-52.939c0-22.125,0-49.363,0-67.545L297.489,430.039z"/>
		<path id="p4109-4_1_" fill="#00003C" stroke="#00003C" stroke-width="0.6" stroke-linecap="round" d="M262.45,445.957
			c10.786-0.512,23.691,5.842,30.736,15.555c6.235,8.615,7.48,16.648,4.736,22.125c2.184,12.123,0.376,21.98-10.972,24.9
			c-11.409,2.922-27.183-3.723-35.225-14.822c-6.235-8.617-5.923-15.555-5.237-22.783c0.374-13.291,0.125-21.395,11.471-24.24
			C259.396,446.322,260.892,446.031,262.45,445.957L262.45,445.957z"/>
		<path id="p2993-7-9-8-29" fill="#0000FF" d="M238.635,366.582l90.398,52.941c0,19.57,0,38.482,0,48.34l-47.505,27.896
			l-90.399-52.941c0-16.432,0-36.219,0-48.414L238.635,366.582z"/>
		<path id="p2993-7-9-8-8-5-59_1_" fill="#5363FF" d="M198.112,404.699l77.93,45.638v31.693l-77.93-45.643V404.699z"/>
		<path id="p4170-7" fill="#000094" d="M308.587,407.401l20.446,12.122v48.34l-47.318,27.896v-58.93l-0.562-2.264L308.587,407.401z"
			/>
		<path id="p5148-2_1_" fill="none" stroke="#2559B9" stroke-width="0.5" d="M281.778,447.49v45.566"/>
		<path id="p2993-7-9-8-8-51" fill="#5363FF" d="M238.698,366.582l90.399,52.941l-47.569,27.82l-90.399-52.939L238.698,366.582z"/>
		<path id="p2993-7-9-8-8-57-9_1_" fill="none" stroke="#859EEF" stroke-width="0.5" stroke-linejoin="bevel" d="M329.097,419.522
			l-47.569,27.821l-90.399-52.94"/>
		<path id="p2993-7-9-8-2-6_1_" fill="none" stroke="#00003C" d="M238.635,366.582l90.398,52.941c0,19.57,0,38.482,0,48.34
			l-47.505,27.896l-90.399-52.941c0-16.432,0-36.219,0-48.414L238.635,366.582z"/>
		<path id="p2993-7-9-8-8-5-5-0" fill="#000094" d="M198.112,404.699l26.745,15.701l-26.745,15.553V404.699z"/>
		<path id="p5229-8-1" fill="none" stroke="#5353FF" stroke-width="0.5" d="M276.042,540.156l-53.055-30.961"/>
		<path id="p4502-0-2-8" fill="#5363FF" d="M277.975,535.191c0.312,0.145,7.169,4.891,7.604,5.258v51.115l-38.342,22.563
			c-0.499-0.293-7.232-4.967-7.606-5.258v-51.115L277.975,535.191z"/>
		<path id="p4925-8" fill="#0000FF" d="M239.633,558.412l45.948,31.035v2.117l-38.342,22.563c-0.499-0.293-7.232-4.967-7.606-5.258
			V558.412z"/>
		<path id="p4502-0-7_1_" fill="#000094" d="M285.581,540.449v51.115l-38.342,22.563v-51.115L285.581,540.449z"/>
		<path id="p5229-81_1_" fill="none" stroke="#0F0E3A" stroke-width="0.5" d="M275.294,536.796l-53.115-30.963"/>
		<path id="p4502-0-2-0-6_1_" fill="none" stroke="#00003C" stroke-width="0.6" stroke-linecap="round" d="M282.962,593.316
			l-35.723,20.811c-0.499-0.291-7.232-4.965-7.606-5.258v-51.115l38.344-22.563"/>
		<path id="p4502-0-2-4-0" fill="#5363FF" d="M218.124,500.287c0.313,0.145,7.17,4.891,7.606,5.256v51.117l-38.404,22.563
			c-0.437-0.293-7.169-4.965-7.543-5.258v-51.115L218.124,500.287z"/>
		<path id="p4925-0-0" fill="#0000FF" d="M179.782,523.505l45.948,31.033v2.119l-38.404,22.563
			c-0.437-0.291-7.169-4.965-7.543-5.256L179.782,523.505L179.782,523.505z"/>
		<path id="p4502-0-1-2_1_" fill="#000094" d="M225.73,505.542v51.115l-38.404,22.563v-51.113L225.73,505.542L225.73,505.542z"/>
		<path id="p4502-0-2-0-9-1_1_" fill="none" stroke="#00003C" stroke-width="0.6" stroke-linecap="round" d="M223.112,558.412
			l-35.786,20.811c-0.437-0.293-7.169-4.965-7.543-5.258v-51.115l38.341-22.563"/>
		<path id="p2993-7-9-8-8-5-9-2" fill="#1A1A1A" d="M201.229,406.452l74.813,43.813v27.602l-74.813-43.813V406.452L201.229,406.452z
			"/>
		<path id="p5093-4_2_" fill="none" stroke="#FF0B0B" stroke-width="1.38" stroke-linecap="round" d="M208.648,424.708"/>
		<path id="p5093-4_1_" fill="none" stroke="#FF0B0B" stroke-width="1.38" stroke-linecap="round" d="M226.415,435.441"/>
		<path id="p5093-1-8_2_" fill="none" stroke="#FF0B0B" stroke-width="1.38" stroke-linecap="round" d="M246.927,447.343"/>
		<path id="p5093-1-8_1_" fill="none" stroke="#FF0B0B" stroke-width="1.38" stroke-linecap="round" d="M264.758,458.152"/>
		<g id="g2493">
			<path id="p3881-3" fill="#FFC453" d="M381.842,523.14c4.238,0.293,7.793,3.508,11.657,5.26
				c6.483,3.283,11.972,6.791,18.144,10.074c3.491,1.975,7.229,3.652,10.723,5.697c5.798,4.965,4.987,14.824,2.309,21.688
				c-3.117,9.055-9.289,16.283-16.521,20.52c-12.717,7.01-25.748,14.68-38.029,22.855c-6.92,4.967-16.146,9.055-23.938,4.09
				c-11.722-6.791-24.003-12.779-35.477-19.424c-6.98-5.551-8.041-16.941-6.048-25.777c3.682-16.283,14.651-30.887,28.865-34.904
				c4.863-1.459,10.535-2.188,15.774-3.432C360.082,527.669,370.992,524.894,381.842,523.14L381.842,523.14z"/>
			<path id="p4084-7" fill="none" stroke="#975E29" stroke-width="0.4" d="M397.489,547.603l-35.973-19.934"/>
			<path id="p4084-9-0" fill="none" stroke="#975E29" stroke-width="0.4" stroke-linecap="round" d="M412.514,544.027
				l-36.473-19.938"/>
			<path id="p4082-64" fill="none" stroke="#975E29" stroke-width="0.5" stroke-linecap="round" d="M376.791,551.693l-34.104-18.914
				"/>
			<path id="p4122-1" fill="#DF9E1F" d="M311.702,551.037l38.219,21.176c0,0,16.584,15.771,31.357,29.939
				c-3.74,2.264-7.479,4.672-11.097,7.082c-6.982,4.967-16.21,9.055-24.002,4.09c-4.988-2.773-10.103-5.623-15.149-8.471
				c-0.188-0.074-0.438-0.146-0.624-0.221c-0.498-0.293-0.997-0.584-1.56-0.875c-0.25-0.146-0.499-0.072-0.748-0.293
				c-5.735-3.139-11.658-6.279-17.332-9.564c-7.044-5.551-8.041-16.941-6.047-25.777
				C306.093,562.062,308.523,556.148,311.702,551.037z"/>
			<path id="p4239-0" fill="#B77711" d="M304.533,568.781l71.509,36.803c-1.994,1.17-3.988,2.336-5.858,3.65
				c-6.982,4.967-16.21,9.055-24.002,4.09c-4.988-2.773-10.103-5.623-15.149-8.471c-0.188-0.074-0.438-0.146-0.624-0.221
				c-0.498-0.293-0.997-0.584-1.56-0.875c-0.25-0.146-0.499-0.072-0.748-0.293c-5.735-3.139-11.658-6.279-17.332-9.564
				C303.909,588.496,302.726,577.542,304.533,568.781z"/>
			<path id="p4080-1" fill="none" stroke="#975E29" stroke-width="0.6" stroke-linecap="round" d="M357.277,559.724l-36.098-18.984"
				/>
			<path id="p4078-2-15" fill="none" stroke="#F1C057" stroke-width="0.69" d="M342.004,581.558l-34.664-19.133"/>
			<path id="p4078-3" fill="none" stroke="#975E29" stroke-width="0.69" d="M343.436,578.857l-34.663-19.133"/>
			<path id="p4076-6-1" fill="none" stroke="#D6BB68" stroke-width="0.6" stroke-linecap="round" d="M341.007,602.152
				l-35.726-19.426"/>
			<path id="p4076-0" fill="none" stroke="#975E29" stroke-width="0.6" stroke-linecap="round" d="M341.132,598.865l-35.662-19.422"
				/>
			<path id="p3881-5-4_1_" fill="#945B00" d="M416.441,541.982c1.995,0,3.866,0.656,5.488,1.824
				c6.479,4.674,6.296,17.232-0.188,28.041c-3.489,5.842-7.17,10.367-11.347,13.07l-39.526,23.658
				c-1.684,1.461-3.489,2.48-5.234,3.432c-7.169,4.09-14.403,4.895-19.891,0.951c-9.787-7.156-9.663-26.143,0.188-42.498
				c6.297-10.371,15.023-16.941,23.005-18.695v-0.219c1.621-0.146,45.137-9.42,46.758-9.564c0.126,0,0.249,0,0.374,0
				C416.191,541.982,416.317,541.982,416.441,541.982L416.441,541.982z"/>
			<path id="p3881-5-7-7" fill="#39200B" d="M410.955,549.501c1.685-0.072,3.306,0.221,4.737,0.949
				c5.799,2.994,6.297,12.121,1.187,20.373c-2.684,4.453-5.61,8.033-9.103,10.295l-32.794,19.938
				c-1.372,1.096-2.868,1.973-4.302,2.848c-5.986,3.432-12.157,4.527-17.021,2.045c-8.791-4.453-9.603-18.256-1.87-30.742
				c4.863-7.959,12.032-13.363,18.828-15.189v-0.219c1.371-0.219,38.279-10.004,39.651-10.225c0.124,0,0.248,0,0.373,0
				C410.706,549.576,410.83,549.501,410.955,549.501L410.955,549.501z"/>
			<path id="p3881-5-7-4-0" fill="#643C1C" d="M406.154,550.816c-0.186,3.215-1.308,6.719-3.49,10.223
				c-2.74,4.455-5.674,8.033-9.162,10.297l-32.731,20.082c-1.371,1.096-2.806,1.898-4.301,2.701
				c-3.059,1.826-6.298,3.141-9.354,3.432c-1.684-6.205-0.125-14.531,4.678-22.344c4.926-7.959,11.969-13.438,18.7-15.262
				C371.74,559.724,399.049,552.57,406.154,550.816L406.154,550.816z"/>
			<path id="p3881-6-4_1_" fill="none" stroke="#2C1B06" stroke-width="0.69" d="M381.842,523.14
				c4.238,0.293,7.793,3.508,11.657,5.26c6.483,3.283,11.972,6.791,18.144,10.074c3.491,1.975,7.229,3.652,10.723,5.697
				c5.798,4.965,4.987,14.824,2.309,21.688c-3.117,9.055-9.289,16.283-16.521,20.52c-12.717,7.01-25.748,14.68-38.029,22.855
				c-6.92,4.967-16.146,9.055-23.938,4.09c-11.909-6.863-24.128-12.926-35.477-19.424c-6.98-5.551-8.041-16.941-6.048-25.777
				c3.682-16.283,14.651-30.887,28.865-34.904c4.863-1.459,10.535-2.188,15.774-3.432
				C360.082,527.669,370.992,524.894,381.842,523.14L381.842,523.14z"/>
			<path id="p3881-7-3-7-3" fill="#707070" d="M399.797,552.351c1.434,0.729,3.24,1.824,4.862,2.555
				c3.614,2.629,3.679,9.641,0,15.701c-3.68,6.133-9.603,8.836-13.278,6.205c-1.811-0.949-3.242-1.824-4.863-2.557
				c-3.615-2.629-3.615-9.639,0-15.699c0.873-1.389,1.933-2.408,2.931-3.434C392.937,554.175,396.304,553.298,399.797,552.351
				L399.797,552.351z"/>
			<path id="p3881-7-3-6" fill="#363636" d="M399.733,553.884c-2.867,0.654-5.984,3.213-8.168,6.863
				c-3.615,5.914-3.553,12.705,0,15.334c3.492,2.557,9.229-0.074,12.845-5.988c3.555-5.842,3.739-12.705,0.188-15.262
				C403.286,553.884,401.416,553.519,399.733,553.884z"/>
			<path id="p3881-7-3-7-7-0" fill="#707070" d="M365.134,562.208c0.562,0.146,1.247,0.293,1.745,0.656
				c1.934,0.877,4.237,2.48,6.422,3.432c4.925,3.58,4.925,12.998,0,21.252c-4.987,8.178-13.03,11.975-17.954,8.396
				c-2.495-1.24-4.24-2.41-6.423-3.436c-0.872-0.654-1.745-1.459-2.309-2.479c0.374-4.676,2.184-9.857,5.237-14.824
				C355.406,569.365,360.144,564.91,365.134,562.208z"/>
			<path id="p3881-7-3-8-5" fill="#363636" d="M369.496,564.107c-4.487-0.074-9.788,3.65-13.402,9.783
				c-4.864,8.182-4.679,17.525,0.187,20.959c4.863,3.506,12.719-0.221,17.521-8.398c4.861-8.176,4.861-17.742,0-21.248
				C372.614,564.326,370.992,564.107,369.496,564.107z"/>
			<path id="p3881-7-3-7-9-7_1_" fill="none" stroke="#191919" stroke-width="0.3" d="M399.797,552.351
				c1.434,0.729,3.24,1.824,4.862,2.555c3.614,2.629,3.679,9.641,0,15.701c-3.68,6.133-9.603,8.836-13.278,6.205
				c-1.811-0.949-3.242-1.824-4.863-2.557c-3.615-2.629-3.615-9.639,0-15.699c0.873-1.389,1.933-2.408,2.931-3.434"/>
			<path id="p3881-7-3-7-7-7-5_1_" fill="none" stroke="#191919" stroke-width="0.3" d="M365.134,562.208
				c0.562,0.146,1.247,0.293,1.745,0.656c1.934,0.877,4.237,2.48,6.422,3.432c4.925,3.58,4.925,12.998,0,21.252
				c-4.987,8.178-13.03,11.975-17.954,8.396c-2.495-1.24-4.24-2.41-6.423-3.436c-0.872-0.654-1.745-1.459-2.309-2.479"/>
			<path id="p3881-5-7-8-6_1_" fill="none" stroke="#2C1B06" stroke-width="0.3" d="M410.955,549.501
				c1.685-0.072,3.306,0.221,4.737,0.949c5.799,2.994,6.297,12.121,1.187,20.373c-2.684,4.453-5.61,8.033-9.103,10.295
				l-32.794,19.938c-1.372,1.096-2.868,1.973-4.302,2.848c-5.986,3.432-12.157,4.527-17.021,2.045
				c-8.791-4.453-9.603-18.256-1.87-30.742c4.863-7.959,12.032-13.363,18.828-15.189c12.905-3.506,26.495-7.154,39.651-10.439
				c0.124,0,0.248,0,0.373,0C410.706,549.576,410.83,549.501,410.955,549.501L410.955,549.501z"/>
			<path id="p3881-7-3-1-4" fill="#535353" d="M399.733,558.63c-1.808-0.074-3.803,1.533-5.299,4.088
				c-1.934,3.359-2.12,7.158-0.188,8.691c1.936,1.459,5.053-0.074,7.046-3.436c1.933-3.357,2.119-7.229,0.188-8.688
				C400.98,558.921,400.295,558.63,399.733,558.63z"/>
			<path id="p3881-7-3-1-6-7" fill="#202020" d="M399.983,558.484c0.938,1.898,0.623,4.818-0.999,7.521
				c-1.495,2.482-3.552,4.09-5.423,4.162c-0.063,0-0.125,0-0.188,0c-0.87-1.971-0.437-5.184,1.122-7.813
				C395.991,559.945,398.113,558.63,399.983,558.484L399.983,558.484z"/>
		</g>
	</g>
	<polygon display="inline" fill="none" stroke="#000000" stroke-width="5" stroke-miterlimit="10" points="403.91,633.453 
		199.424,633.468 97.167,480.464 199.396,327.445 403.885,327.428 506.14,480.431 	"/>
</g>
<text transform="matrix(1 0 0 1 159.2375 675.4448)" enable-background="new    "><tspan x="0" y="0" fill="#00003C" font-family="'HelveticaNeue'" font-size="30">CLUB DE ROBÓTICA </tspan><tspan x="26.685" y="36" fill="#00003C" font-family="'HelveticaNeue'" font-size="30">Y MECATRÓNICA</tspan></text>
<g transform="translate(0.000000,512.000000) scale(0.100000,-0.100000)">
	<path fill="#00003C" d="M3832.702,1091.304c-24.541-2.188-54.306-5.161-64.629-6.743c-6.475-1.001-19.189-2.788-28.008-3.984
		c-8.857-1.177-21.992-2.964-29.092-3.97c-7.119-0.991-21.113-2.773-31.25-3.95c-53.447-6.763-124.326-18.667-147.822-24.819
		c-12.266-3.193-20.254-9.746-16.563-13.101c2.568-2.393,9.023-1.997,41.572,2.954c37.041,5.566,57.09-0.781,64.414-20.64
		c4.316-11.113,6.475-94.097,6.68-239.819c0-146.133,0.439-153.672,12.07-196.543c11.855-44.297,31.26-78.848,62.5-112.012
		c51.699-54.609,121.289-84.766,221.474-96.094l10.342-1.191l-1.504-20.039c-2.578-34.336-8.184-53.984-17.871-63.535
		c-7.354-7.148-17.031-9.316-44.814-10.117c-16.602-0.41-23.486-1.387-24.785-3.379c-2.598-3.965-2.373-4.766,2.578-8.926
		c4.316-3.613,9.053-3.789,111.611-3.379c173.037,0.781,230.107,4.551,338.486,21.816c54.102,8.73,71.113,15.488,77.363,30.977
		c7.109,17.09,15.938,69.707,16.162,96.68c0.215,18.281,0,18.887-4.746,19.473c-7.549,0.996-10.771-2.578-13.34-15.098
		c-1.523-6.152-6.465-18.867-11.211-28.164c-19.18-36.738-50.654-53.828-115.928-62.363c-89.424-11.914-141.143-8.73-157.07,9.922
		c-5.811,6.758-12.275,23.242-14.014,35.547l-1.494,9.941l18.945,5.547c54.307,16.289,104.727,45.273,144.141,83.398
		c50.654,48.633,74.57,103.848,82.744,190c1.289,13.887,2.598,93.516,3.037,181.66c0.42,102.246,1.484,160.61,2.998,167.554
		c2.803,12.715,10.127,23.037,18.32,26.221c5.596,2.183,30.156,1.577,61.396-1.387c10.996-1.206,11.641-1.001,10.791,3.35
		c-0.449,2.593-3.457,5.767-8.193,7.954c-7.979,3.779-57.324,13.306-94.805,18.672c-31.045,4.17-48.057,6.743-65.723,9.927
		c-35.977,6.357-82.725,12.5-107.734,14.087c-15.068,0.801-20.244,0.601-23.486-1.587c-3.232-2.373-3.447-3.569-1.494-6.953
		c2.578-4.58,6.25-5.547,30.371-8.525c32.324-3.774,49.561-10.127,61.836-22.441c11.436-11.313,13.574-18.267,15.742-51.025
		c2.568-36.533,2.568-323.208,0-360.337c-6.455-95.508-33.613-145.938-99.121-184.238c-18.975-10.938-48.057-22.246-51.934-20.078
		c-2.578,1.406-2.383,411.973,0.234,450.488c2.148,33.745,4.297,41.909,12.266,50.825c9.707,10.537,17.451,12.314,52.793,12.52
		c33.818,0.2,38.564,1.387,34.258,8.73c-1.289,2.197-3.887,4.57-6.045,5.371c-9.258,3.379-64.629,5.166-187.021,6.152
		c-142.422,1.177-142.207,1.177-142.207-9.15c0-4.956,0.215-4.956,27.158-6.343c40.938-2.183,58.828-9.927,65.928-28.794
		c6.475-16.665,7.109-43.472,7.109-267.026c0-215.82-0.215-227.91-3.672-227.91c-6.66,0.176-39.414,13.496-55.361,22.617
		c-67.432,38.73-97.832,96.914-104.717,200.527c-2.578,40.117-2.578,274.966,0,334.731c2.168,49.634,3.457,56.187,12.051,67.72
		c9.287,12.28,29.101,19.653,60.996,22.427c14.863,1.387,19.609,3.569,19.609,9.326
		C3865.026,1091.304,3855.769,1093.096,3832.702,1091.304z"/>
</g>
<path fill="none" stroke="#00003C" stroke-width="2" stroke-miterlimit="10" d="M467.139,630.226c0,5.645-5.373,10.219-12,10.219
	h-299c-6.627,0-12-4.574-12-10.219V392.663c0-5.643,5.373-10.218,12-10.218h299c6.627,0,12,4.575,12,10.218V630.226z"/>
<g transform="translate(0.000000,512.000000) scale(0.100000,-0.100000)" display="none">
	<path display="inline" fill="#00ABDF" d="M3875.456,986.059c-16.182-1.758-35.811-4.16-42.617-5.43
		c-4.277-0.801-12.656-2.246-18.477-3.203c-5.83-0.947-14.492-2.393-19.17-3.203c-4.697-0.791-13.936-2.227-20.615-3.184
		c-35.234-5.43-81.973-15.02-97.471-19.971c-8.096-2.568-13.35-7.842-10.928-10.557c1.699-1.914,5.957-1.602,27.422,2.402
		c24.424,4.473,37.637-0.645,42.471-16.621c2.842-8.945,4.268-75.752,4.404-193.047c0-117.637,0.293-123.711,7.959-158.223
		c7.813-35.645,20.615-63.447,41.211-90.137c34.092-43.955,79.99-68.242,146.045-77.354l6.816-0.957l-0.977-16.123
		c-1.699-27.656-5.41-43.486-11.777-51.152c-4.854-5.762-11.24-7.51-29.57-8.145c-10.947-0.332-15.488-1.123-16.338-2.725
		c-1.709-3.193-1.572-3.838,1.699-7.188c2.842-2.881,5.967-3.037,73.594-2.725c114.102,0.645,151.748,3.682,223.213,17.568
		c35.664,7.041,46.895,12.48,51.006,24.941c4.697,13.74,10.518,56.103,10.674,77.822c0.137,14.707,0,15.195-3.145,15.684
		c-4.971,0.781-7.1-2.09-8.799-12.158c-0.996-4.951-4.268-15.186-7.393-22.686c-12.637-29.57-33.398-43.32-76.445-50.186
		c-58.965-9.6-93.066-7.041-103.574,7.979c-3.838,5.439-8.086,18.711-9.238,28.613l-0.986,7.988l12.51,4.473
		c35.801,13.115,69.043,36.445,95.039,67.129c33.398,39.16,49.17,83.594,54.57,152.949c0.84,11.172,1.699,75.264,1.992,146.221
		c0.273,82.305,0.977,129.287,1.973,134.873c1.855,10.234,6.68,18.545,12.09,21.113c3.691,1.748,19.883,1.26,40.469-1.123
		c7.266-0.967,7.695-0.811,7.129,2.705c-0.293,2.09-2.285,4.629-5.41,6.396c-5.254,3.037-37.793,10.713-62.52,15.029
		c-20.449,3.35-31.68,5.43-43.32,7.988c-23.73,5.117-54.561,10.059-71.045,11.348c-9.932,0.645-13.35,0.469-15.498-1.289
		c-2.129-1.914-2.266-2.871-0.977-5.586c1.699-3.691,4.111-4.473,20.029-6.875c21.318-3.027,32.676-8.145,40.771-18.057
		c7.529-9.111,8.945-14.697,10.371-41.064c1.699-29.404,1.699-260.176,0-290.059c-4.258-76.885-22.168-117.471-65.352-148.301
		c-12.52-8.809-31.689-17.91-34.248-16.152c-1.699,1.113-1.572,331.602,0.146,362.617c1.426,27.158,2.832,33.73,8.096,40.898
		c6.396,8.486,11.504,9.922,34.814,10.078c22.305,0.156,25.43,1.113,22.578,7.031c-0.84,1.768-2.559,3.672-3.965,4.316
		c-6.113,2.725-42.637,4.16-123.32,4.951c-93.926,0.957-93.789,0.957-93.789-7.363c0-3.984,0.146-3.984,17.91-5.107
		c26.992-1.748,38.779-7.988,43.467-23.164c4.268-13.428,4.697-35,4.697-214.961c0-173.711-0.146-183.457-2.422-183.457
		c-4.395,0.156-25.996,10.879-36.504,18.203c-44.473,31.191-64.521,78.008-69.063,161.426c-1.699,32.285-1.699,221.338,0,269.443
		c1.426,39.951,2.285,45.225,7.949,54.502c6.123,9.902,19.199,15.82,40.225,18.047c9.805,1.133,12.93,2.891,12.93,7.52
		C3896.774,986.059,3890.671,987.495,3875.456,986.059z"/>
</g>
<g id="Laurel" display="none">
	<title>Layer 1</title>
	<path id="path5202_1_" display="inline" fill="#241F1C" d="M442.93,468.564c-0.107,0.096,1.338-0.643,2.057-1.693
		c0.719-1.049,1.633-3.061,3.186-4.335s1.577-1.14,3.539-1.573c1.961-0.434,2.213-0.205,4.307-0.162
		c2.092,0.043,4.065,0.334,4.065,0.334s-1.024-0.129-2.11,0.306c-1.086,0.434-0.778,0.297-2.232,1.431
		c-1.455,1.133-1.853,1.893-3.543,3.326c-1.723,1.461-2.014,1.917-3.701,2.034c-1.755,0.122-1.789-0.859-3.34-0.462
		c-1.552,0.398-2.822,1.839-2.822,1.839S442.27,469.929,442.93,468.564z"/>
	<path id="path2231_1_" display="inline" fill="#241F1C" d="M432.104,402.587c3.682,2.848,6.934,6.623,9.529,10.914
		c5.636,9.314,8.405,21.517,6.973,34.404c-2.179,19.607-13.459,35.153-27.563,40.31l-0.133,1.198
		c14.598-5.156,26.322-21.168,28.57-41.393c2.141-19.256-5.031-36.441-16.972-45.691
		C432.358,402.657,432.278,402.281,432.104,402.587z"/>
	<path id="path3205_1_" display="inline" fill="#241F1C" d="M431.831,482.389c-0.068,0.175,0.282-2.114,1.137-3.354
		c0.855-1.239,2.619-2.912,3.475-5.442c0.855-2.529,0.714-2.549,0.62-5.572c-0.095-3.023-0.392-3.371-0.997-6.523
		s-1.428-6.088-1.428-6.088s0.404,1.528,0.263,3.23s-0.087,1.218-0.828,3.578c-0.741,2.361-1.394,3.074-2.37,5.834
		c-0.995,2.814-1.373,3.322-1.037,5.887c0.351,2.666,1.34,2.573,1.361,4.973c0.02,2.398-1.078,4.528-1.078,4.528
		S430.645,483.585,431.831,482.389z"/>
	<path id="path5188_1_" display="inline" fill="#241F1C" d="M442.602,467.994c-0.013,0.164-0.257-1.777,0.141-3.076
		c0.397-1.297,1.419-3.274,1.521-5.594c0.104-2.318-0.014-2.281-0.778-4.64s-1.079-2.522-2.281-4.793s-2.524-4.289-2.524-4.289
		s0.67,1.06,0.945,2.459s0.209,0.996,0.158,3.14c-0.051,2.143-0.408,2.949-0.554,5.494c-0.15,2.597-0.335,3.139,0.519,5.043
		c0.887,1.98,1.652,1.541,2.216,3.432c0.563,1.893,0.177,3.983,0.177,3.983S441.932,469.38,442.602,467.994z"/>
	<path id="path5190_1_" display="inline" fill="#241F1C" d="M448.777,448.182c0.034,0.13-0.712-1.215-0.737-2.377
		c-0.027-1.162,0.284-3.128-0.274-4.919s-0.647-1.708-1.948-3.12c-1.302-1.413-1.613-1.389-3.258-2.53
		c-1.646-1.141-3.324-2.037-3.324-2.037s0.861,0.482,1.482,1.404c0.623,0.922,0.453,0.65,1.008,2.284s0.477,2.407,1.063,4.39
		c0.596,2.021,0.59,2.516,1.84,3.546c1.3,1.071,1.822,0.381,2.824,1.537c1.002,1.157,1.258,2.911,1.258,2.911
		S448.598,449.539,448.777,448.182z"/>
	<path id="path5192_1_" display="inline" fill="#241F1C" d="M447.868,429.435c0.057,0.102-0.873-0.836-1.121-1.836
		c-0.247-1.001-0.348-2.805-1.195-4.188c-0.846-1.383-0.909-1.284-2.35-2.107c-1.439-0.825-1.713-0.707-3.41-1.19
		c-1.695-0.482-3.373-0.741-3.373-0.741s0.865,0.152,1.601,0.76c0.735,0.609,0.532,0.426,1.344,1.674
		c0.813,1.247,0.894,1.943,1.8,3.483c0.926,1.571,1.016,2.002,2.336,2.511c1.371,0.528,1.708-0.233,2.83,0.461
		c1.121,0.695,1.928,2.734,1.928,2.734S447.969,430.668,447.868,429.435z"/>
	<path id="path5194_1_" display="inline" fill="#241F1C" d="M443.216,415.791c0.078,0.063-1.043-0.396-1.527-1.078
		c-0.483-0.683-1.025-2-2.176-2.813c-1.153-0.813-1.188-0.722-2.771-0.967c-1.583-0.242-1.817-0.085-3.561-0.009
		c-1.745,0.076-3.416,0.314-3.416,0.314s0.865-0.108,1.721,0.156c0.855,0.264,0.615,0.18,1.699,0.9
		c1.087,0.72,1.336,1.218,2.584,2.132c1.273,0.932,1.467,1.229,2.857,1.27c1.444,0.041,1.579-0.613,2.824-0.385
		c1.247,0.23,2.147,1.159,2.147,1.159S443.616,416.683,443.216,415.791z"/>
	<path id="path5196_1_" display="inline" fill="#241F1C" d="M435.763,405.666c0.087,0.042-1.089-0.145-1.667-0.697
		c-0.576-0.552-1.3-1.711-2.557-2.234c-1.258-0.523-1.281-0.428-2.883-0.295c-1.604,0.131-1.813,0.341-3.529,0.822
		c-1.717,0.482-3.337,1.105-3.337,1.105s0.841-0.309,1.726-0.25c0.886,0.057,0.635,0.031,1.813,0.48
		c1.179,0.449,1.496,0.877,2.863,1.479c1.396,0.611,1.63,0.856,3.012,0.57c1.438-0.298,1.477-0.967,2.743-1.035
		s2.292,0.629,2.292,0.629S436.288,406.443,435.763,405.666z"/>
	<path id="path5198_1_" display="inline" fill="#241F1C" d="M432.675,482.16c0,0-0.166,0.354,0.965-0.914
		c-0.146,0.052,1.665,0.035,2.769-0.811c1.104-0.846,2.706-2.754,4.795-3.361c2.088-0.606,2.076-0.425,4.364,0.253
		c2.289,0.679,2.498,1.114,4.79,2.46s4.378,2.921,4.378,2.921s-1.09-0.791-2.414-0.928c-1.324-0.138-0.945-0.115-2.883,0.379
		s-2.604,1.183-4.889,1.899c-2.33,0.731-2.788,1.113-4.682,0.215c-1.968-0.934-1.714-2.16-3.54-2.63S432.675,482.16,432.675,482.16
		L432.675,482.16z"/>
	<path id="path5204_1_" display="inline" fill="#241F1C" d="M448.719,450.503c-0.062,0.109,0.844-0.893,1.198-1.975
		s0.708-3.037,1.614-4.524c0.904-1.487,0.941-1.378,2.25-2.251c1.311-0.873,1.519-0.74,2.986-1.24
		c1.469-0.498,2.889-0.754,2.889-0.754s-0.734,0.152-1.432,0.802s-0.502,0.454-1.357,1.794c-0.855,1.342-1.027,2.094-2.006,3.752
		c-0.998,1.69-1.138,2.156-2.301,2.688c-1.209,0.554-1.37-0.277-2.398,0.459c-1.027,0.736-1.713,2.295-1.713,2.295
		S448.451,451.839,448.719,450.503z"/>
	<path id="path5206_1_" display="inline" fill="#241F1C" d="M448.802,431.423c-0.037,0.109,0.975-1.25,1.092-2.273
		c0.117-1.022,0.047-2.816,0.617-4.301c0.57-1.486,0.63-1.396,1.729-2.416c1.099-1.019,1.33-0.941,2.665-1.66
		s2.673-1.213,2.673-1.213s-0.688,0.273-1.233,0.979s-0.396,0.496-0.95,1.842c-0.553,1.348-0.56,2.045-1.166,3.694
		c-0.618,1.683-0.655,2.12-1.684,2.81c-1.067,0.719-1.403,0.015-2.256,0.859c-0.851,0.846-1.189,2.352-1.189,2.352
		S448.823,432.656,448.802,431.423z"/>
	<path id="path5210_1_" display="inline" fill="#241F1C" d="M445.16,418.854c0.015,0.106,0.098-1.261-0.21-2.036
		c-0.307-0.776-1.044-1.855-1.199-3.393c-0.157-1.536-0.08-1.54,0.323-3.318c0.405-1.779,0.603-1.968,1.292-3.796
		s1.468-3.517,1.468-3.517s-0.393,0.88-0.517,1.891c-0.125,1.012-0.097,0.724,0.02,2.154c0.115,1.432,0.377,1.887,0.57,3.564
		c0.197,1.712,0.338,2.031-0.141,3.526c-0.498,1.555-1.011,1.448-1.303,2.862c-0.291,1.415,0.055,3.207,0.055,3.207
		S445.647,419.621,445.16,418.854z"/>
	<path id="path5212_1_" display="inline" fill="#241F1C" d="M432.349,402.621c-0.027,0.227-1.163-0.887-1.829-0.963
		c-0.666-0.075-1.764,0.096-2.819-0.544s-1.013-0.726-1.897-2.099c-0.884-1.373-0.888-1.687-1.636-3.396
		c-0.749-1.709-1.358-3.44-1.358-3.44s0.325,0.888,0.889,1.556c0.563,0.667,0.397,0.484,1.363,1.112
		c0.967,0.628,1.404,0.583,2.57,1.259c1.189,0.687,1.472,0.702,2.134,2.008c0.688,1.356,0.401,1.482,1.121,2.543
		s1.749,1.824,1.749,1.824S432.534,402.535,432.349,402.621z"/>
	<path id="path6198_1_" display="inline" fill="#241F1C" d="M438.442,408.26c0.047,0.087-0.284-1.17-0.801-1.69
		c-0.516-0.52-1.524-1.074-2.127-2.35c-0.604-1.277-0.533-1.322-0.688-3.116c-0.153-1.795-0.025-2.069,0.07-4.063
		c0.098-1.993,0.32-3.91,0.32-3.91s-0.104,0.992,0.082,1.956c0.185,0.963,0.125,0.691,0.658,1.896
		c0.534,1.205,0.913,1.465,1.594,2.846c0.693,1.41,0.919,1.615,0.919,3.199c0.001,1.646-0.509,1.831-0.358,3.242
		c0.148,1.41,0.967,2.842,0.967,2.842S439.124,408.675,438.442,408.26z"/>
	<g display="inline">
		<title>Layer 1</title>
		<path id="path5202" fill="#241F1C" d="M352.848,469.99c0,0-1.268-1.438-2.818-1.832c-1.55-0.395-1.586,0.588-3.34,0.469
			c-1.688-0.113-1.979-0.569-3.698-2.026c-1.687-1.429-2.083-2.189-3.534-3.319c-1.452-1.129-1.145-0.994-2.229-1.426
			c-1.085-0.431-2.11-0.301-2.11-0.301s1.975-0.295,4.066-0.342c2.094-0.048,2.346-0.277,4.307,0.152
			c1.96,0.43,1.986,0.295,3.535,1.565c1.55,1.271,2.459,3.281,3.176,4.329s2.16,1.785,2.054,1.688
			C352.913,470.31,352.848,469.99,352.848,469.99z"/>
		<path id="path2231" fill="#241F1C" d="M362.821,402.691c-11.961,9.276-19.17,26.477-17.072,45.728
			c2.203,20.22,13.893,36.206,28.48,41.33l-0.131-1.197c-14.092-5.126-25.338-20.647-27.475-40.25
			c-1.404-12.884,1.393-25.093,7.049-34.42c2.605-4.296,5.865-8.079,9.554-10.935C363.052,402.64,362.971,403.017,362.821,402.691z"
			/>
		<path id="path3205" fill="#241F1C" d="M364.205,483.797c0,0-1.093-2.127-1.067-4.526c0.025-2.398,1.016-2.309,1.371-4.975
			c0.343-2.565-0.035-3.072-1.023-5.885c-0.971-2.758-1.623-3.47-2.357-5.829c-0.736-2.358-0.684-1.874-0.82-3.576
			c-0.139-1.702,0.27-3.231,0.27-3.231s-0.828,2.938-1.441,6.092s-0.91,3.501-1.011,6.525c-0.101,3.023-0.243,3.043,0.606,5.57
			c0.851,2.529,2.61,4.198,3.463,5.436c0.853,1.236,1.197,3.525,1.131,3.351C364.508,483.941,364.205,483.797,364.205,483.797z"/>
		<path id="path5188" fill="#241F1C" d="M353.044,469.535c0,0-0.383-2.091,0.185-3.984c0.567-1.893,1.333-1.454,2.224-3.437
			c0.857-1.905,0.674-2.447,0.529-5.043c-0.141-2.546-0.496-3.352-0.541-5.494c-0.047-2.143-0.115-1.739,0.164-3.14
			s0.951-2.461,0.951-2.461s-1.327,2.021-2.533,4.295c-1.207,2.273-1.522,2.438-2.293,4.797c-0.77,2.361-0.887,2.324-0.788,4.643
			c0.098,2.318,1.114,4.294,1.509,5.591c0.395,1.296,0.146,3.239,0.135,3.075C353.251,469.761,353.044,469.535,353.044,469.535z"/>
		<path id="path5190" fill="#241F1C" d="M346.517,449.666c0,0,0.26-1.754,1.265-2.912c1.004-1.159,1.525-0.469,2.828-1.543
			c1.251-1.033,1.247-1.528,1.848-3.551c0.59-1.982,0.514-2.757,1.072-4.392c0.557-1.636,0.387-1.363,1.012-2.286
			c0.624-0.924,1.485-1.407,1.485-1.407s-1.68,0.899-3.328,2.044c-1.647,1.145-1.958,1.121-3.263,2.537
			c-1.305,1.415-1.393,1.332-1.955,3.125c-0.563,1.792-0.256,3.757-0.285,4.919c-0.028,1.162-0.777,2.508-0.743,2.378
			C346.63,449.934,346.517,449.666,346.517,449.666z"/>
		<path id="path5192" fill="#241F1C" d="M347.011,431.39c0,0,0.81-2.041,1.934-2.737c1.123-0.698,1.458,0.063,2.831-0.469
			c1.32-0.511,1.412-0.942,2.341-2.515c0.911-1.543,0.993-2.238,1.808-3.488s0.61-1.065,1.348-1.676
			c0.737-0.609,1.602-0.764,1.602-0.764s-1.678,0.262-3.375,0.748c-1.697,0.487-1.971,0.371-3.412,1.197
			c-1.442,0.828-1.505,0.729-2.355,2.113c-0.85,1.385-0.953,3.188-1.203,4.19c-0.25,1.001-1.182,1.94-1.125,1.839
			C347.3,431.062,347.011,431.39,347.011,431.39z"/>
		<path id="path5194" fill="#241F1C" d="M351.702,416.856c0,0,0.902-0.932,2.149-1.163s1.38,0.422,2.825,0.378
			c1.389-0.043,1.583-0.341,2.858-1.275c1.251-0.917,1.501-1.416,2.589-2.138c1.086-0.724,0.846-0.639,1.701-0.904
			s1.722-0.16,1.722-0.16s-1.671-0.234-3.415-0.307s-1.978-0.229-3.561,0.018c-1.584,0.248-1.619,0.156-2.773,0.972
			c-1.153,0.815-1.697,2.134-2.184,2.816c-0.485,0.683-1.607,1.144-1.528,1.083C351.682,417.068,351.702,416.856,351.702,416.856z"
			/>
		<path id="path5196" fill="#241F1C" d="M359.083,406.609c0,0,1.025-0.699,2.293-0.635c1.267,0.065,1.305,0.734,2.741,1.029
			c1.382,0.283,1.616,0.038,3.013-0.577c1.369-0.604,1.688-1.032,2.866-1.483c1.179-0.452,0.929-0.426,1.813-0.485
			s1.726,0.247,1.726,0.247s-1.619-0.62-3.335-1.099c-1.715-0.478-1.924-0.687-3.527-0.814c-1.602-0.129-1.623-0.226-2.883,0.301
			c-1.258,0.526-1.984,1.687-2.563,2.24s-1.755,0.743-1.668,0.7C359.034,406.811,359.083,406.609,359.083,406.609z"/>
		<path id="path5198" fill="#241F1C" d="M362.481,482.521c0,0-1.824-0.982-3.652-0.509c-1.827,0.474-1.576,1.7-3.547,2.638
			c-1.895,0.902-2.351,0.521-4.68-0.205c-2.285-0.711-2.947-1.398-4.885-1.889c-1.937-0.49-1.557-0.513-2.882-0.373
			c-1.324,0.14-2.417,0.934-2.417,0.934s2.09-1.58,4.385-2.931s2.506-1.787,4.795-2.47c2.291-0.684,2.279-0.865,4.365-0.263
			c2.088,0.603,3.686,2.507,4.788,3.351c1.102,0.844,2.913,0.855,2.767,0.805C362.647,482.875,362.481,482.521,362.481,482.521
			L362.481,482.521z"/>
		<path id="path5204" fill="#241F1C" d="M346.772,451.943c0,0-0.682-1.556-1.707-2.291c-1.027-0.734-1.191,0.098-2.398-0.453
			c-1.161-0.529-1.3-0.994-2.295-2.683c-0.975-1.655-1.145-2.407-1.997-3.747s-0.657-1.145-1.354-1.791
			c-0.696-0.648-1.431-0.799-1.431-0.799s1.42,0.253,2.887,0.748c1.468,0.496,1.677,0.363,2.984,1.233
			c1.307,0.87,1.344,0.761,2.246,2.245c0.902,1.485,1.252,3.44,1.604,4.521c0.353,1.081,1.256,2.082,1.194,1.972
			C346.771,452.234,346.772,451.943,346.772,451.943z"/>
		<path id="path5206" fill="#241F1C" d="M346.167,432.493c0,0-0.336-1.506-1.186-2.349c-0.85-0.844-1.188-0.14-2.254-0.855
			c-1.025-0.688-1.063-1.125-1.677-2.807c-0.603-1.647-0.607-2.345-1.158-3.69s-0.401-1.137-0.945-1.841s-1.231-0.976-1.231-0.976
			s1.338,0.492,2.67,1.208c1.333,0.715,1.565,0.638,2.662,1.654c1.096,1.016,1.156,0.927,1.723,2.41
			c0.567,1.484,0.494,3.278,0.607,4.301c0.115,1.023,1.123,2.38,1.088,2.271C346.44,433.051,346.167,432.493,346.167,432.493z"/>
		<path id="path5210" fill="#241F1C" d="M349.774,420.388c0,0,0.35-1.793,0.061-3.207c-0.289-1.413-0.801-1.306-1.295-2.859
			c-0.477-1.494-0.334-1.813-0.134-3.525c0.196-1.679,0.46-2.135,0.578-3.566c0.119-1.431,0.146-1.143,0.024-2.153
			c-0.123-1.011-0.513-1.89-0.513-1.89s0.774,1.686,1.46,3.514c0.686,1.825,0.883,2.014,1.283,3.791
			c0.399,1.778,0.477,1.781,0.316,3.319c-0.158,1.537-0.898,2.617-1.207,3.394s-0.229,2.145-0.215,2.038
			C349.645,420.01,349.774,420.388,349.774,420.388z"/>
		<path id="path5212" fill="#241F1C" d="M362.695,402.84c0,0,1.03-0.766,1.752-1.827c0.723-1.063,0.437-1.188,1.127-2.547
			c0.665-1.307,0.947-1.322,2.139-2.012c1.167-0.678,1.604-0.633,2.572-1.264s0.802-0.447,1.366-1.116
			c0.564-0.668,0.893-1.558,0.893-1.558s-0.613,1.734-1.367,3.443c-0.751,1.713-0.756,2.025-1.643,3.4
			c-0.887,1.376-0.844,1.461-1.902,2.104c-1.057,0.642-2.154,0.473-2.82,0.551c-0.666,0.076-1.805,1.192-1.831,0.967
			C362.796,402.896,362.695,402.84,362.695,402.84z"/>
		<path id="path6198" fill="#241F1C" d="M356.236,409.488c0,0,0.821-1.434,0.974-2.845c0.153-1.411-0.355-1.595-0.352-3.241
			c0.004-1.583,0.23-1.79,0.927-3.199c0.683-1.385,1.062-1.645,1.599-2.852c0.536-1.205,0.477-0.934,0.664-1.897
			s0.086-1.956,0.086-1.956s0.217,1.917,0.311,3.91c0.092,1.993,0.219,2.268,0.062,4.062c-0.158,1.795-0.088,1.84-0.693,3.117
			c-0.606,1.278-1.615,1.834-2.132,2.355c-0.519,0.521-0.852,1.778-0.806,1.692C356.192,409.05,356.236,409.488,356.236,409.488z"/>
	</g>
</g>
</svg>
